<mxfile host="Electron" agent="Mozilla/5.0 (X11; Linux x86_64) AppleWebKit/537.36 (KHTML, like Gecko) draw.io/24.7.5 Chrome/126.0.6478.183 Electron/31.3.0 Safari/537.36" version="24.7.5">
  <diagram name="Page-1" id="rVCV7spYX7ece5k55mdf">
    <mxGraphModel dx="1006" dy="1347" grid="1" gridSize="10" guides="1" tooltips="1" connect="1" arrows="1" fold="1" page="1" pageScale="1" pageWidth="850" pageHeight="1100" math="0" shadow="0">
      <root>
        <mxCell id="0" />
        <mxCell id="1" parent="0" />
        <mxCell id="5G3XZViaB1KUQyTwfULS-1" value="" style="verticalLabelPosition=bottom;html=1;verticalAlign=top;strokeWidth=2;shape=mxgraph.lean_mapping.physical_pull;pointerEvents=1;" vertex="1" parent="1">
          <mxGeometry x="80" y="80" width="80" height="80" as="geometry" />
        </mxCell>
        <mxCell id="5G3XZViaB1KUQyTwfULS-2" value="input detector" style="rounded=1;whiteSpace=wrap;html=1;" vertex="1" parent="1">
          <mxGeometry x="60" y="200" width="120" height="60" as="geometry" />
        </mxCell>
        <mxCell id="5G3XZViaB1KUQyTwfULS-5" value="main loop" style="text;html=1;align=center;verticalAlign=middle;whiteSpace=wrap;rounded=0;" vertex="1" parent="1">
          <mxGeometry x="90" y="105" width="60" height="30" as="geometry" />
        </mxCell>
        <mxCell id="5G3XZViaB1KUQyTwfULS-6" value="&lt;h2&gt;Context: UI&lt;/h2&gt;" style="text;html=1;align=center;verticalAlign=middle;whiteSpace=wrap;rounded=0;" vertex="1" parent="1">
          <mxGeometry x="75" y="20" width="90" height="60" as="geometry" />
        </mxCell>
        <mxCell id="5G3XZViaB1KUQyTwfULS-7" value="&lt;h2&gt;Context: web worker&lt;/h2&gt;" style="text;html=1;align=center;verticalAlign=middle;whiteSpace=wrap;rounded=0;" vertex="1" parent="1">
          <mxGeometry x="510" y="5" width="110" height="90" as="geometry" />
        </mxCell>
        <mxCell id="5G3XZViaB1KUQyTwfULS-9" value="" style="verticalLabelPosition=bottom;html=1;verticalAlign=top;strokeWidth=2;shape=mxgraph.lean_mapping.physical_pull;pointerEvents=1;" vertex="1" parent="1">
          <mxGeometry x="525" y="80" width="80" height="80" as="geometry" />
        </mxCell>
        <mxCell id="5G3XZViaB1KUQyTwfULS-10" value="engine loop" style="text;html=1;align=center;verticalAlign=middle;whiteSpace=wrap;rounded=0;" vertex="1" parent="1">
          <mxGeometry x="535" y="105" width="60" height="30" as="geometry" />
        </mxCell>
        <mxCell id="5G3XZViaB1KUQyTwfULS-17" style="edgeStyle=orthogonalEdgeStyle;rounded=0;orthogonalLoop=1;jettySize=auto;html=1;exitX=1;exitY=0.5;exitDx=0;exitDy=0;exitPerimeter=0;" edge="1" parent="1" source="5G3XZViaB1KUQyTwfULS-11" target="5G3XZViaB1KUQyTwfULS-12">
          <mxGeometry relative="1" as="geometry" />
        </mxCell>
        <mxCell id="5G3XZViaB1KUQyTwfULS-11" value="input directive" style="verticalLabelPosition=bottom;html=1;verticalAlign=top;align=center;strokeColor=none;fillColor=#00BEF2;shape=mxgraph.azure.message;pointerEvents=1;" vertex="1" parent="1">
          <mxGeometry x="370" y="211.25" width="50" height="37.5" as="geometry" />
        </mxCell>
        <mxCell id="5G3XZViaB1KUQyTwfULS-19" style="edgeStyle=orthogonalEdgeStyle;rounded=0;orthogonalLoop=1;jettySize=auto;html=1;entryX=1;entryY=0.5;entryDx=0;entryDy=0;entryPerimeter=0;" edge="1" parent="1" source="5G3XZViaB1KUQyTwfULS-12" target="5G3XZViaB1KUQyTwfULS-18">
          <mxGeometry relative="1" as="geometry">
            <mxPoint x="560" y="380" as="targetPoint" />
            <Array as="points">
              <mxPoint x="565" y="299" />
            </Array>
          </mxGeometry>
        </mxCell>
        <mxCell id="5G3XZViaB1KUQyTwfULS-12" value="engine" style="rounded=1;whiteSpace=wrap;html=1;" vertex="1" parent="1">
          <mxGeometry x="505" y="200" width="120" height="60" as="geometry" />
        </mxCell>
        <mxCell id="5G3XZViaB1KUQyTwfULS-16" style="edgeStyle=orthogonalEdgeStyle;rounded=0;orthogonalLoop=1;jettySize=auto;html=1;entryX=0;entryY=0.5;entryDx=0;entryDy=0;entryPerimeter=0;" edge="1" parent="1" source="5G3XZViaB1KUQyTwfULS-2" target="5G3XZViaB1KUQyTwfULS-11">
          <mxGeometry relative="1" as="geometry" />
        </mxCell>
        <mxCell id="5G3XZViaB1KUQyTwfULS-18" value="render state" style="verticalLabelPosition=bottom;html=1;verticalAlign=top;align=center;strokeColor=none;fillColor=#00BEF2;shape=mxgraph.azure.message;pointerEvents=1;" vertex="1" parent="1">
          <mxGeometry x="270" y="280" width="50" height="37.5" as="geometry" />
        </mxCell>
        <mxCell id="5G3XZViaB1KUQyTwfULS-24" value="&lt;h2&gt;Context: web worker&lt;/h2&gt;" style="text;html=1;align=center;verticalAlign=middle;whiteSpace=wrap;rounded=0;" vertex="1" parent="1">
          <mxGeometry x="510" y="410" width="110" height="90" as="geometry" />
        </mxCell>
        <mxCell id="5G3XZViaB1KUQyTwfULS-25" value="" style="verticalLabelPosition=bottom;html=1;verticalAlign=top;strokeWidth=2;shape=mxgraph.lean_mapping.physical_pull;pointerEvents=1;" vertex="1" parent="1">
          <mxGeometry x="525" y="485" width="80" height="80" as="geometry" />
        </mxCell>
        <mxCell id="5G3XZViaB1KUQyTwfULS-26" value="3rd loop" style="text;html=1;align=center;verticalAlign=middle;whiteSpace=wrap;rounded=0;" vertex="1" parent="1">
          <mxGeometry x="535" y="510" width="60" height="30" as="geometry" />
        </mxCell>
        <mxCell id="5G3XZViaB1KUQyTwfULS-35" style="edgeStyle=orthogonalEdgeStyle;rounded=0;orthogonalLoop=1;jettySize=auto;html=1;exitX=1;exitY=0.5;exitDx=0;exitDy=0;exitPerimeter=0;" edge="1" parent="1" source="5G3XZViaB1KUQyTwfULS-36" target="5G3XZViaB1KUQyTwfULS-38">
          <mxGeometry relative="1" as="geometry" />
        </mxCell>
        <mxCell id="5G3XZViaB1KUQyTwfULS-36" value="animation frame request" style="verticalLabelPosition=bottom;html=1;verticalAlign=top;align=center;strokeColor=none;fillColor=#00BEF2;shape=mxgraph.azure.message;pointerEvents=1;" vertex="1" parent="1">
          <mxGeometry x="365" y="601.25" width="50" height="37.5" as="geometry" />
        </mxCell>
        <mxCell id="5G3XZViaB1KUQyTwfULS-37" style="edgeStyle=orthogonalEdgeStyle;rounded=0;orthogonalLoop=1;jettySize=auto;html=1;entryX=1;entryY=0.5;entryDx=0;entryDy=0;entryPerimeter=0;" edge="1" parent="1" source="5G3XZViaB1KUQyTwfULS-38" target="5G3XZViaB1KUQyTwfULS-40">
          <mxGeometry relative="1" as="geometry">
            <mxPoint x="555" y="770" as="targetPoint" />
            <Array as="points">
              <mxPoint x="560" y="689" />
            </Array>
          </mxGeometry>
        </mxCell>
        <mxCell id="5G3XZViaB1KUQyTwfULS-38" value="3rd loop worker" style="rounded=1;whiteSpace=wrap;html=1;" vertex="1" parent="1">
          <mxGeometry x="500" y="590" width="120" height="60" as="geometry" />
        </mxCell>
        <mxCell id="5G3XZViaB1KUQyTwfULS-39" style="edgeStyle=orthogonalEdgeStyle;rounded=0;orthogonalLoop=1;jettySize=auto;html=1;entryX=0;entryY=0.5;entryDx=0;entryDy=0;entryPerimeter=0;" edge="1" parent="1" target="5G3XZViaB1KUQyTwfULS-36">
          <mxGeometry relative="1" as="geometry">
            <mxPoint x="175" y="620" as="sourcePoint" />
          </mxGeometry>
        </mxCell>
        <mxCell id="5G3XZViaB1KUQyTwfULS-40" value="animation frame" style="verticalLabelPosition=bottom;html=1;verticalAlign=top;align=center;strokeColor=none;fillColor=#00BEF2;shape=mxgraph.azure.message;pointerEvents=1;" vertex="1" parent="1">
          <mxGeometry x="265" y="670" width="50" height="37.5" as="geometry" />
        </mxCell>
      </root>
    </mxGraphModel>
  </diagram>
</mxfile>
